PathFileType	4	(X/Y/Z)	C:/Users/opensim2020/Desktop/walking_exp_matlab/subject02_walking10_straight_01.trc																																																																																																																															
DataRate	CameraRate	NumFrames	NumMarkers	Units	OrigDataRate	OrigDataStartFrame	OrigNumFrames																																																																																																																											
100	100	4	43	mm	100	736	328																																																																																																																											
Frame#	Time	LFHD			RFHD			LBHD			RBHD			C7			T10			CLAV			STRN			RBAK			LSHO			LUPA			LELB			LFRM			LWRA			LWRB			LFIN			RSHO			RUPA			RELB			RFRM			RWRA			RWRB			RFIN			LASI			RASI			LPSI			RPSI			LTHI			LKNE			LTIB			LANK			LHEE			LTOE			RTHI			RKNE			RTIB			RANK			RHEE			RTOE			*39			*40			*41			*42		
		X1	Y1	Z1	X2	Y2	Z2	X3	Y3	Z3	X4	Y4	Z4	X5	Y5	Z5	X6	Y6	Z6	X7	Y7	Z7	X8	Y8	Z8	X9	Y9	Z9	X10	Y10	Z10	X11	Y11	Z11	X12	Y12	Z12	X13	Y13	Z13	X14	Y14	Z14	X15	Y15	Z15	X16	Y16	Z16	X17	Y17	Z17	X18	Y18	Z18	X19	Y19	Z19	X20	Y20	Z20	X21	Y21	Z21	X22	Y22	Z22	X23	Y23	Z23	X24	Y24	Z24	X25	Y25	Z25	X26	Y26	Z26	X27	Y27	Z27	X28	Y28	Z28	X29	Y29	Z29	X30	Y30	Z30	X31	Y31	Z31	X32	Y32	Z32	X33	Y33	Z33	X34	Y34	Z34	X35	Y35	Z35	X36	Y36	Z36	X37	Y37	Z37	X38	Y38	Z38	X39	Y39	Z39	X40	Y40	Z40	X41	Y41	Z41	X42	Y42	Z42	X43	Y43	Z43
																																																																																																																																		
288	2.87	531.90466	1762.04346	1400.38684	559.87183	1748.57764	1541.23291	442.85245	1640.93518	1407.34277	459.15366	1621.04688	1547.70544	434.97412	1523.62573	1479.08337	387.46399	1249.55066	1478.55359	577.00452	1461.48413	1454.06616	633.58453	1288.82397	1460.75671	389.2597	1351.77869	1547.31482	493.03207	1497.87866	1290.95325	478.32297	1298.48047	1204.50647	486.04691	1158.22827	1186.33386	513.8905	1029.08179	1169.79065	590.86224	914.36713	1194.02612	542.67047	909.70081	1163.7666	572.71027	850.9234	1155.68494	538.41229	1495.74426	1656.06055	522.74353	1303.27698	1741.47778	538.9411	1156.03894	1753.26965	577.61835	1041.35938	1766.901	632.94415	919.5481	1738.36658	590.17847	911.68384	1775.40613	632.56342	852.25989	1772.15918	633.30188	996.07214	1332.40723	621.00305	972.6286	1589.81458	418.55048	1035.18298	1405.97754	407.59491	1027.54175	1520.35852	591.92706	684.52142	1281.95471	567.59088	481.27893	1318.24353	517.28009	291.62527	1327.81506	526.89996	71.01425	1373.1178	493.62085	44.33377	1427.18005	681.60583	38.3857	1352.40674	554.77374	671.16943	1674.67261	565.81305	472.8418	1669.79602	422.15964	359.19275	1666.13232	290.97232	219.12207	1630.52356	244.36018	191.61717	1565.11023	352.52771	74.80932	1672.77808	425.97183	1782.00989	1505.81763	2845.18066	1033.97815	-3360.2644	NaN	NaN	NaN	NaN	NaN	NaN
289	2.88	539.53772	1762.51099	1399.13757	567.41174	1749.0686	1539.94434	450.45914	1641.36072	1406.09607	466.66751	1621.56653	1546.44836	442.33609	1524.27832	1477.5625	393.92609	1250.45422	1476.98413	584.14764	1461.80908	1452.84827	640.1842	1288.89587	1459.44019	396.34378	1352.69568	1545.9834	500.84293	1498.74426	1289.76428	487.67105	1299.33301	1202.99048	496.6611	1159.26013	1184.14368	527.06537	1030.74084	1167.77844	606.12823	917.53052	1192.48206	558.16241	911.78143	1162.01636	589.54462	853.77759	1153.9563	546.11462	1496.26587	1654.89941	529.57611	1303.82776	1740.25049	544.40759	1156.57288	1752.06995	582.36859	1041.67017	1765.82678	637.05859	919.50427	1737.74048	594.06256	911.89545	1774.63501	636.17273	852.30011	1771.68713	638.48322	996.99634	1330.93347	627.47418	974.18439	1588.08887	424.38321	1035.46985	1405.80139	414.11581	1028.35669	1520.26208	595.37738	684.35547	1281.22949	569.60834	481.17093	1318.0271	518.38751	291.73099	1327.65967	527.02045	71.08045	1373.25708	493.62186	44.24293	1427.36011	681.74268	38.27916	1352.34229	566.68884	672.44019	1673.94519	579.86359	474.27646	1668.24341	437.83051	358.44186	1665.25903	309.25546	215.82646	1630.83838	262.69809	186.18825	1566.20679	375.14108	74.88079	1675.91528	433.52762	1782.64868	1504.42236	2845.17407	1034.29211	-3360.25317	NaN	NaN	NaN	NaN	NaN	NaN
290	2.89	547.23578	1762.99365	1397.99768	575.00653	1749.49402	1538.80554	457.92874	1641.74414	1404.7196	474.20328	1622.1239	1545.28455	449.84384	1525.09668	1476.59351	400.58139	1251.36829	1475.70044	591.28943	1462.14685	1451.65881	646.83533	1289.02637	1458.08704	403.26035	1353.61963	1544.79797	508.5054	1499.5343	1288.62549	496.74802	1300.26001	1201.33179	507.27292	1160.30774	1181.8512	540.1673	1032.21277	1165.80029	621.2132	920.81299	1191.09888	573.53314	913.96802	1160.38306	606.4101	856.82294	1152.31665	553.52985	1496.56006	1653.4032	536.26599	1304.3584	1739.10901	549.85437	1157.08777	1750.95276	587.13531	1042.01746	1765.15283	640.93207	919.32172	1736.99426	598.20404	912.23486	1774.07288	639.73755	852.21997	1771.14221	643.50122	997.95477	1329.40869	633.98273	975.74603	1586.15125	429.95428	1035.62524	1405.76538	420.48212	1029.34058	1520.54639	597.92126	684.08423	1281.15332	571.61768	481.02982	1317.76794	519.43915	291.9313	1327.64514	527.00702	71.25529	1373.36755	493.67374	44.3258	1427.40076	681.86932	38.19069	1352.26208	577.91016	673.42792	1673.10315	593.97125	475.69058	1666.80627	453.8172	357.29251	1664.56323	328.14893	211.91045	1631.50488	281.69305	179.94698	1567.5094	398.72955	74.55946	1678.72375	441.15814	1783.20618	1503.24121	2845.80566	1034.35132	-3357.43677	NaN	NaN	NaN	NaN	NaN	NaN
291	2.9	555.09583	1763.48926	1396.93274	582.67865	1749.89014	1537.7428	465.56934	1642.34509	1403.56604	481.69528	1622.65552	1544.21155	457.21616	1525.91748	1475.53638	407.11325	1252.22168	1474.66418	598.32684	1462.47852	1450.58191	653.46094	1289.17603	1456.65955	410.26251	1354.66235	1543.87646	516.05695	1500.41589	1287.54016	506.11197	1301.34509	1199.8385	518.15259	1161.50879	1180.11255	553.5155	1033.8938	1163.96631	636.1994	924.15631	1189.79541	588.94421	916.33594	1158.79822	623.05341	860.02008	1150.84204	561.02881	1497.02075	1652.40564	542.79333	1304.79675	1737.92297	555.29236	1157.51453	1749.81702	591.69202	1042.05664	1763.92712	645.14441	919.25104	1736.44092	602.27002	912.44128	1773.42102	643.37964	852.0105	1770.44153	648.41223	998.70679	1327.92444	640.55377	977.23254	1584.14282	435.56213	1035.67737	1405.81128	427.05737	1030.05115	1520.74219	600.5163	683.68262	1280.92261	573.91522	480.98383	1317.81921	520.5827	292.07269	1327.66833	527.15765	71.25836	1373.50098	493.70734	44.3036	1427.56616	681.96552	38.08458	1352.20471	589.1424	674.84613	1672.51721	607.84735	477.00858	1665.08984	470.14847	355.75156	1664.02332	347.63498	207.40424	1632.26892	301.5285	173.17125	1568.87244	422.93164	73.97639	1681.5188	448.86618	1783.78076	1502.1394	2845.29565	1034.06519	-3360.36719	NaN	NaN	NaN	NaN	NaN	NaN
